<svg width="1024" height="1024" viewBox="0 0 1024 1024" fill="none" xmlns="http://www.w3.org/2000/svg">
  <rect width="1024" height="1024" rx="232" fill="#F8EFDE"/>
  <rect x="76" y="76" width="872" height="872" rx="196" fill="#0F172A"/>
  <rect x="108" y="108" width="808" height="808" rx="164" stroke="#E8B25D" stroke-width="18"/>

  <g transform="translate(512 512) rotate(-45) translate(-512 -512)">
    <rect x="370" y="268" width="284" height="444" rx="108" fill="#F6EAD3"/>
    <rect x="404" y="304" width="216" height="376" rx="84" fill="#E8B25D"/>
    <rect x="438" y="214" width="148" height="108" rx="34" fill="#F6EAD3"/>
    <rect x="462" y="170" width="100" height="64" rx="22" fill="#F6EAD3"/>
    <rect x="452" y="156" width="12" height="54" rx="6" fill="#0F172A"/>
    <rect x="474" y="156" width="12" height="54" rx="6" fill="#0F172A"/>
    <rect x="496" y="156" width="12" height="54" rx="6" fill="#0F172A"/>
    <rect x="518" y="156" width="12" height="54" rx="6" fill="#0F172A"/>
    <rect x="540" y="156" width="12" height="54" rx="6" fill="#0F172A"/>
    <rect x="464" y="404" width="96" height="24" rx="12" fill="#F6EAD3"/>
    <circle cx="512" cy="598" r="22" fill="#0F172A"/>
    <rect x="492" y="680" width="40" height="92" rx="20" fill="#F6EAD3"/>
  </g>
</svg>
