<svg width="1024" height="1024" viewBox="0 0 1024 1024" fill="none" xmlns="http://www.w3.org/2000/svg">
  <rect width="1024" height="1024" rx="240" fill="#FBF3E4"/>
  <rect x="76" y="76" width="872" height="872" rx="200" fill="#0F172A"/>
  <rect x="108" y="108" width="808" height="808" rx="168" stroke="#E8B25D" stroke-width="20"/>
  <path d="M332 300C360 300 380 321 380 348C380 364 372 379 360 388L435 464L486 413L409 338C403 332 403 322 409 316L425 300C431 294 441 294 447 300L524 377L576 325L499 248C493 242 493 232 499 226L515 210C521 204 531 204 537 210L614 287L648 253C663 238 686 230 710 232C731 234 751 245 765 261C779 275 790 295 792 316C794 340 786 363 771 378L737 412L814 489C820 495 820 505 814 511L798 527C792 533 782 533 776 527L699 450L647 502L724 579C730 585 730 595 724 601L708 617C702 623 692 623 686 617L609 540L558 591L635 668C641 674 641 684 635 690L619 706C613 712 603 712 597 706L520 629L446 703C456 714 462 728 462 744C462 774 438 798 408 798C378 798 354 774 354 744C354 714 378 690 408 690C424 690 438 696 448 706L522 632L447 556L396 607C408 616 416 631 416 648C416 675 394 696 368 696C341 696 320 675 320 648C320 621 341 600 368 600C385 600 400 608 409 621L460 570L385 494C376 503 362 508 348 508C318 508 294 484 294 454C294 424 318 400 348 400C362 400 376 405 385 414L436 363L360 287C352 295 342 300 332 300ZM688 278L433 533L491 591L746 336C753 329 757 319 756 309C755 300 751 291 744 284C737 277 728 273 719 272C708 271 697 273 688 278ZM408 722C396 722 386 732 386 744C386 756 396 766 408 766C420 766 430 756 430 744C430 732 420 722 408 722ZM368 632C359 632 352 639 352 648C352 657 359 664 368 664C377 664 384 657 384 648C384 639 377 632 368 632ZM348 432C336 432 326 442 326 454C326 466 336 476 348 476C360 476 370 466 370 454C370 442 360 432 348 432ZM332 332C323 332 316 339 316 348C316 357 323 364 332 364C341 364 348 357 348 348C348 339 341 332 332 332Z" fill="#FBF3E4"/>
  <path d="M248 860C248 831.281 271.281 808 300 808H724C752.719 808 776 831.281 776 860V860C776 888.719 752.719 912 724 912H300C271.281 912 248 888.719 248 860V860Z" fill="#E8B25D"/>
  <path d="M332.936 879V839.727H358.752C363.705 839.727 367.939 840.666 371.455 842.545C374.982 844.413 377.684 846.997 379.561 850.295C381.439 853.593 382.377 857.373 382.377 861.636C382.377 865.911 381.433 869.697 379.543 872.994C377.654 876.281 374.927 878.852 371.362 880.71C367.808 882.568 363.53 883.497 358.528 883.497H341.676V873.61H356.524C359.415 873.61 361.804 873.214 363.691 872.423C365.589 871.631 367 870.444 367.923 868.862C368.858 867.28 369.325 864.871 369.325 861.636C369.325 858.4 368.858 855.998 367.923 854.429C367 852.858 365.589 851.683 363.691 850.905C361.792 850.116 359.39 849.721 356.487 849.721H345.22V879H332.936ZM389.16 879V839.727H401.444V868.874H401.944L425.203 839.727H440.222L415.207 870.624L440.486 879H426.543L405.742 871.847L401.444 877.105V879H389.16ZM495.897 839.727V879H485.297L468.203 860.571H467.916V879H455.633V839.727H466.396L483.289 858.135H483.635V839.727H495.897ZM513.02 879H499.955L513.942 839.727H529.652L543.619 879H530.554L521.989 853.457H521.682L513.02 879ZM512.204 863.559H531.292V872.725H512.204V863.559ZM548.323 879V839.727H563.529L574.068 865.425H574.568L585.107 839.727H600.313V879H588.353V860.091H587.999L580.654 878.712H567.982L560.637 859.939H560.283V879H548.323ZM607.672 879V839.727H621.31V870.031H637.02V879H607.672ZM659.834 879.768C655.331 879.768 651.449 878.845 648.186 877C644.934 875.155 642.429 872.565 640.67 869.232C638.911 865.899 638.031 861.998 638.031 857.527C638.031 853.056 638.911 849.155 640.67 845.822C642.429 842.489 644.934 839.899 648.186 838.054C651.449 836.209 655.331 835.286 659.834 835.286C664.337 835.286 668.214 836.209 671.466 838.054C674.729 839.899 677.239 842.489 678.998 845.822C680.757 849.155 681.637 853.056 681.637 857.527C681.637 861.998 680.757 865.899 678.998 869.232C677.239 872.565 674.729 875.155 671.466 877C668.214 878.845 664.337 879.768 659.834 879.768ZM659.834 869.777C662.039 869.777 663.888 869.15 665.383 867.895C666.889 866.639 668.023 864.921 668.785 862.741C669.559 860.56 669.946 858.156 669.946 855.53C669.946 852.903 669.559 850.499 668.785 848.319C668.023 846.139 666.889 844.42 665.383 843.165C663.888 841.909 662.039 841.281 659.834 841.281C657.63 841.281 655.774 841.909 654.269 843.165C652.774 844.42 651.639 846.139 650.865 848.319C650.103 850.499 649.722 852.903 649.722 855.53C649.722 858.156 650.103 860.56 650.865 862.741C651.639 864.921 652.774 866.639 654.269 867.895C655.774 869.15 657.63 869.777 659.834 869.777Z" fill="#0F172A"/>
</svg>
